<svg xmlns="http://www.w3.org/2000/svg" data-name="Layer 1" viewBox="0 0 100 125" x="0px" y="0px">
<title>statelove_112917</title>
<path fill="currentColor" d="M75.63,42.27a7.62,7.62,0,0,0-8.07-1.35,9.77,9.77,0,0,0-2.67,1.88,36.46,36.46,0,0,0-3.77,4.44,38.26,38.26,0,0,0-3.84-4.44,9.75,9.75,0,0,0-2.67-1.88,7.62,7.62,0,0,0-8.07,1.35,6.38,6.38,0,0,0-1.7,2.32,6.72,6.72,0,0,0,.2,5.18,15.9,15.9,0,0,0,2.68,4A155.3,155.3,0,0,0,60.41,67.5l.68.62.68-.62A155,155,0,0,0,74.45,53.76a15.9,15.9,0,0,0,2.68-4,6.72,6.72,0,0,0,.2-5.18A6.38,6.38,0,0,0,75.63,42.27ZM75.28,49a14,14,0,0,1-2.36,3.49A162.83,162.83,0,0,1,61.08,65.39,162.88,162.88,0,0,1,49.24,52.47,14,14,0,0,1,46.88,49a4.81,4.81,0,0,1-.19-3.64,4.42,4.42,0,0,1,1.18-1.59,5.85,5.85,0,0,1,3.84-1.45,5,5,0,0,1,2.07.43,7.87,7.87,0,0,1,2.12,1.51,32.51,32.51,0,0,1,4.34,5.29l.87,1.53L62,49.54a31.88,31.88,0,0,1,4.27-5.29,7.87,7.87,0,0,1,2.12-1.51,5.67,5.67,0,0,1,5.92,1,4.41,4.41,0,0,1,1.18,1.59A4.81,4.81,0,0,1,75.28,49Z"/>
<path fill="red" d="M88.6,48a27.78,27.78,0,0,0-1.66-3.13c-.61-2.85-1.61-7.51-1.83-8s-.54-3.29-.85-5.82a1,1,0,0,0-1-.88H78.73l-3.66-1.72a1,1,0,0,0-.67-.06l-6.91,1.76-5.17-.87H56.74l-5.4-1.57V15a1,1,0,0,0-1-1H31.95a1,1,0,0,0-1,1l-.44,29.21H12.42a1,1,0,0,0-1,1v1.37a1,1,0,0,0,.12.48l2.73,5,.09.13,4.39,5.68a1,1,0,0,0,.45.33l2.45.9v3a1,1,0,0,0,.36.77l7.72,6.48a1,1,0,0,0,.64.24h4.31a1,1,0,0,0,1-.71l.64-2.13,1.46-2.18L41,64.41l3.82,2.41,1.92,3.63a1,1,0,0,0,.18.24L49,72.81l3.63,9.34a1,1,0,0,0,.38.47l4.47,3,.16.08,4.77,2,.12,0,4.69,1.36a1,1,0,0,0,.28,0A1,1,0,0,0,68,89l3.48-1.82a1,1,0,0,0,.5-1.14l-.91-3.41a1,1,0,0,0-.13-.3l-1.36-2a17.49,17.49,0,0,1-.95-2.85l3.57-4.53,4.21-3.62,3.82-3.75L85.31,63a1,1,0,0,0,.4-.36l2.8-4.42a1,1,0,0,0,.15-.49C88.81,54.54,89,49,88.6,48ZM86.68,57.4l-2.51,4-5,2.49a1,1,0,0,0-.25.18l-3.89,3.82-4.24,3.63-.13.14-3.94,5a1,1,0,0,0-.18.87,19.74,19.74,0,0,0,1.35,3.94l1.27,1.91.66,2.47-2.42,1.26-4.25-1.23-4.63-2-4.13-2.73-3.59-9.24a1,1,0,0,0-.23-.34l-2.17-2.17-2-3.73a1,1,0,0,0-.35-.38l-4.31-2.73a1,1,0,0,0-.59-.15l-4.09.23a1,1,0,0,0-.78.44l-1.82,2.72a1,1,0,0,0-.13.27l-.47,1.56H30.72l-7.09-5.95V58.4a1,1,0,0,0-.66-.94l-2.83-1L16,51l-2.57-4.7v-.12H31.49a1,1,0,0,0,1-1L32.93,16H49.34v12.4a1,1,0,0,0,.72,1l6.25,1.82a1,1,0,0,0,.28,0h5.47l5.29.9a1.08,1.08,0,0,0,.41,0l6.77-1.73L78.08,32a1,1,0,0,0,.43.1h3.89a47.12,47.12,0,0,0,.86,5.42c.16.45,1,4.38,1.77,7.86a1,1,0,0,0,.12.31,28.58,28.58,0,0,1,1.58,2.93A70.66,70.66,0,0,1,86.68,57.4Z"/>
<!--<text x="0" y="115" fill="#000000" font-size="5px" font-weight="bold" font-family="'Helvetica Neue', Helvetica, Arial-Unicode, Arial, Sans-serif">Created by Erica Grau</text>
<text x="0" y="120" fill="#000000" font-size="5px" font-weight="bold" font-family="'Helvetica Neue', Helvetica, Arial-Unicode, Arial, Sans-serif">from the Noun Project</text>-->
</svg>